<mxfile><diagram name="Persona 1"><mxGraphModel dx="1200" dy="800"><root><mxCell id="0"/><mxCell id="1" parent="0"/><mxCell id="bg" value="" style="rounded=0;fillColor=#f5f5f5" vertex="1" parent="1"><mxGeometry x="40" y="40" width="1120" height="720"/></mxCell><mxCell id="photo" value="👩‍🔬" style="ellipse;fillColor=#d2691e;fontSize=80;fontColor=#fff" vertex="1" parent="1"><mxGeometry x="80" y="100" width="200" height="200"/></mxCell><mxCell id="name" value="Dr. Sarah Mitchell" style="text;fontSize=32;fontStyle=1" vertex="1" parent="1"><mxGeometry x="320" y="120" width="400" height="40"/></mxCell><mxCell id="demo" value="Age: 42 | Adelaide, SA\nOccupation: Academic Researcher in Indigenous Studies\nEducation: PhD in Anthropology" style="text;fontSize=14;align=left" vertex="1" parent="1"><mxGeometry x="320" y="180" width="500" height="60"/></mxCell><mxCell id="bg-sect" value="Background" style="text;fontSize=18;fontStyle=1" vertex="1" parent="1"><mxGeometry x="80" y="340" width="200" height="30"/></mxCell><mxCell id="bg-text" value="Dr. Mitchell is a non-indigenous researcher dedicated to studying indigenous Australian art and cultural significance. Travels to regional areas for fieldwork and collaborates with indigenous communities." style="rounded=1;fillColor=#fff;align=left;verticalAlign=top" vertex="1" parent="1"><mxGeometry x="80" y="380" width="400" height="100"/></mxCell><mxCell id="goals-sect" value="Goals" style="text;fontSize=18;fontStyle=1" vertex="1" parent="1"><mxGeometry x="520" y="340" width="200" height="30"/></mxCell><mxCell id="goals-text" value="✓ Document and catalog art for research\n✓ Access reliable, comprehensive information\n✓ Contribute to cultural preservation\n✓ Respect cultural protocols" style="rounded=1;fillColor=#d5e8d4;align=left;verticalAlign=top;fontSize=13" vertex="1" parent="1"><mxGeometry x="520" y="380" width="360" height="100"/></mxCell><mxCell id="needs-sect" value="Needs" style="text;fontSize=18;fontStyle=1" vertex="1" parent="1"><mxGeometry x="80" y="520" width="200" height="30"/></mxCell><mxCell id="needs-text" value="• Detailed art information (period, type, condition)\n• Accurate geographic data\n• Search and filter capabilities\n• Citation-ready information" style="rounded=1;fillColor=#e3f2fd;align=left;verticalAlign=top;fontSize=13" vertex="1" parent="1"><mxGeometry x="80" y="560" width="400" height="100"/></mxCell><mxCell id="pain-sect" value="Pain Points" style="text;fontSize=18;fontStyle=1" vertex="1" parent="1"><mxGeometry x="520" y="520" width="200" height="30"/></mxCell><mxCell id="pain-text" value="• Scattered information across sources\n• Difficulty verifying authenticity\n• Unclear access protocols\n• Concerns about disrespecting protocols" style="rounded=1;fillColor=#ffebee;align=left;verticalAlign=top;fontSize=13" vertex="1" parent="1"><mxGeometry x="520" y="560" width="360" height="100"/></mxCell><mxCell id="quote" value='"I need a reliable resource that helps me conduct respectful research while ensuring I\'m not contributing to exploitation or misrepresentation."' style="rounded=1;fillColor=#fff3e0;fontSize=14;fontStyle=2;align=center" vertex="1" parent="1"><mxGeometry x="920" y="100" width="220" height="180"/></mxCell><mxCell id="tech" value="Tech Level: HIGH\nUses academic databases, GIS tools regularly" style="rounded=1;fillColor=#e1d5e7;fontSize=12;align=center" vertex="1" parent="1"><mxGeometry x="920" y="620" width="220" height="60"/></mxCell></root></mxGraphModel></diagram></mxfile>
